<?xml version="1.0" encoding="utf-8"?>
<!-- Generator: Adobe Illustrator 26.0.3, SVG Export Plug-In . SVG Version: 6.00 Build 0)  -->
<svg version="1.1" id="Layer_3" xmlns="http://www.w3.org/2000/svg" xmlns:xlink="http://www.w3.org/1999/xlink" x="0px" y="0px"
	 viewBox="0 0 745.71 858.86" style="enable-background:new 0 0 745.71 858.86;" xml:space="preserve">
<style type="text/css">
	.st0{fill:none;stroke:#7AB8B9;stroke-width:40;stroke-miterlimit:10;}
	.st1{fill:none;stroke:#7AB8B9;stroke-width:40;stroke-linecap:round;stroke-miterlimit:10;}
	.st2{fill:#7AB8B9;stroke:#7AB8B9;stroke-width:12;stroke-linecap:round;stroke-miterlimit:10;}
</style>
<path class="st0" d="M492.43,180.64c0,0,102.21-98.36,178.39,11.57c14.74,12.21,49.18,123.43-68.46,165.21"/>
<path class="st1" d="M588.77,473.79c0,0,81.09-225.64-174.45-326.89c-8.68-4.82-165.86-37.61-251.68,85.82
	c-3.86,7.71-43.71,57.21-43.07,134.36c1.93,4.5-3.86,73.93-55.93,106.71c-4.5,3.21-5.79,15.43,15.43,24.43
	c9,5.14,36.64,16.07,36.64,16.07l1.29,37.29c0,0-9.86,24.43-3,30.86c2.14,3-5.79,22.71,9.43,27.86c4.07,3,4.18,39.96,4.18,39.96
	s14.68,38.89,64.39,33.32c7.29,0,107.14-11.14,144-45.86"/>
<path class="st1" d="M179.04,404.36c0,0,27.96,31.82,57.86,0"/>
<path class="st1" d="M159.86,237.23c0,0,116.57,50.77,133.29,129.2c1.29,12.86,43.71,82.29,79.71,100.29
	c10.29,3.86,12.86-46.29,63-48.21c10.29,1.93,52.71,14.79,43.71,68.79c0,11.57-24.43,87.43-83.57,81"/>
<line class="st1" x1="273.21" y1="673.39" x2="313.07" y2="761.46"/>
<line class="st1" x1="502.07" y1="761.46" x2="446.79" y2="557.36"/>
<path class="st1" d="M538.71,561.21c0,0-36,43.71-68.79,55.93"/>
<circle class="st2" cx="407.09" cy="520.55" r="10.48"/>
<circle class="st2" cx="568.72" cy="520.55" r="11.29"/>
</svg>
