<?xml version="1.0" encoding="utf-8"?>
<!-- Generator: Adobe Illustrator 26.0.3, SVG Export Plug-In . SVG Version: 6.00 Build 0)  -->
<svg version="1.1" id="Layer_2" xmlns="http://www.w3.org/2000/svg" xmlns:xlink="http://www.w3.org/1999/xlink" x="0px" y="0px"
	 viewBox="0 0 745.71 858.86" style="enable-background:new 0 0 745.71 858.86;" xml:space="preserve">
<style type="text/css">
	.st0{fill:none;stroke:#7AB8B9;stroke-width:40;stroke-miterlimit:10;}
	.st1{fill:#7AB8B9;stroke:#7AB8B9;stroke-width:12;stroke-miterlimit:10;}
	.st2{fill:none;stroke:#7AB8B9;stroke-width:60;stroke-miterlimit:10;}
</style>
<path class="st0" d="M207.38,23.34c0,0,39.62,90.57-100,247.17C99.84,285.6-19.03,442.2,73.42,668.62
	c5.66,15.09,75.47,149.06,75.47,149.06"/>
<path class="st0" d="M569.65,23.34c0,0-15.09,196.23,77.36,471.7c3.77,16.98,56.6,220.75,43.4,349.06"/>
<path class="st0" d="M121.18,264.54c0,0,142,15.3,252.62,73.29c99.34,52.07,208.03-18.48,217.44-56.8"/>
<rect x="412.07" y="183.86" class="st1" width="42.43" height="39.86"/>
<path class="st0" d="M73.29,356.3c3.9-0.31,313.71,64.2,360,184.98c6.43,9,51.43,271.21,51.43,276.39"/>
<path class="st2" d="M433.29,541.29"/>
<path class="st0" d="M606.86,372.86c1.43-9.13-50.79,165.21-173.57,165.21"/>
</svg>
